<svg xmlns="http://www.w3.org/2000/svg" viewBox="0 0 32 32" id="download-clod-data"><path fill="#eef5fd" d="M25.72,12.07A7.84,7.84,0,0,0,26,10,8,8,0,0,0,10.57,7,5,5,0,0,0,6,12s0,.07,0,.1A5,5,0,0,0,7,22H25a5,5,0,0,0,.72-9.93Z"></path><path fill="#6d6daa" d="M25 23H7A6 6 0 0 1 5 11.33a5.93 5.93 0 0 1 4.84-5.2A9 9 0 0 1 27 10a8.6 8.6 0 0 1-.1 1.33A6 6 0 0 1 25 23zM7 12a.38.38 0 0 1 0 .08 1 1 0 0 1-.8 1A4 4 0 0 0 7 21H25a4 4 0 0 0 .57-7.94 1 1 0 0 1-.69-.44 1 1 0 0 1-.13-.81A6.75 6.75 0 0 0 25 10 7 7 0 0 0 11.5 7.41a1 1 0 0 1-.84.63A4 4 0 0 0 7 12zM16 31a1 1 0 0 1-.71-.29l-3-3a1 1 0 0 1 1.42-1.42L16 28.59l2.29-2.3a1 1 0 0 1 1.42 1.42l-3 3A1 1 0 0 1 16 31z"></path><path fill="#6d6daa" d="M16,31a1,1,0,0,1-1-1V16a1,1,0,0,1,2,0V30A1,1,0,0,1,16,31Z"></path></svg>