<svg xmlns="http://www.w3.org/2000/svg" width="64" height="64" fill="none" id="profile"><path fill="#D0D2E0" d="M32 33.333c-12.518 0-22.667 9.551-22.667 21.333h45.334c0-11.782-10.149-21.333-22.667-21.333Z"></path><path fill="#D0D2E0" fill-rule="evenodd" d="M10.713 53.333h42.573c-.73-10.36-9.91-18.666-21.286-18.666-11.375 0-20.556 8.307-21.287 18.666ZM8 54.667C8 42.073 18.823 32 32 32c13.178 0 24 10.073 24 22.667V56H8v-1.333Z" clip-rule="evenodd"></path><path fill="#2B3151" d="M43.487 20.82c0 6.344-5.143 11.487-11.487 11.487S20.513 27.164 20.513 20.82 25.656 9.333 32 9.333s11.487 5.143 11.487 11.487Z"></path><path fill="#2B3151" fill-rule="evenodd" d="M32 10.667c-5.608 0-10.154 4.546-10.154 10.153 0 5.608 4.546 10.154 10.154 10.154s10.154-4.546 10.154-10.154c0-5.607-4.546-10.153-10.154-10.153ZM19.18 20.82C19.18 13.74 24.92 8 32 8s12.82 5.74 12.82 12.82c0 7.081-5.74 12.821-12.82 12.821s-12.82-5.74-12.82-12.82Z" clip-rule="evenodd"></path></svg>