<svg class="svg-icon" style="width: 1em; height: 1em;vertical-align: middle;fill: currentColor;overflow: hidden;" viewBox="0 0 1024 1024" version="1.1" xmlns="http://www.w3.org/2000/svg"><path d="M524.248975 301.183574c-113.583918 0-205.671243 92.079138-205.671243 205.655893 0 113.585965 92.087325 205.663056 205.671243 205.663056 113.585965 0 205.655893-92.078115 205.655893-205.663056C729.904868 393.262712 637.83494 301.183574 524.248975 301.183574zM525.278421 684.341137c-97.589642 0-176.707584-79.116919-176.707584-176.705538 0-97.589642 79.116919-176.699398 176.707584-176.699398s176.690188 79.108732 176.690188 176.699398C701.968609 605.224218 622.869087 684.341137 525.278421 684.341137z"  /><path d="M484.839407 558.252417 427.580309 501.008668 405.365354 523.231809 462.624453 580.483744 462.48426 580.622914 484.699214 602.847078 631.443369 456.101899 609.228415 433.880805Z"  /><path d="M884.007619 221.700311c-7.981788 0.404206-16.027022 0.61603-24.11728 0.61603-113.911376 0-232.750995-41.912575-321.734632-124.567064-4.068665-3.771907-9.136078-5.472642-14.263865-5.894244l0-0.162706-0.390903 0.077771-0.38988-0.077771 0 0.162706c-5.143137 0.421602-10.210549 2.121314-14.263865 5.894244-88.98466 82.654488-207.823256 124.567064-321.734632 124.567064-8.106632 0-16.135492-0.211824-24.13263-0.61603-13.657045-0.832971-24.585955 9.533121-25.270547 22.800285l0.092098 1.893116c-0.046049 268.465404 16.197914 577.909106 378.76144 690.470741 2.182712 0.678452 4.380774 0.951675 6.547113 1.003863l0 0.056282 0.188288 0.031722 0.201591-0.031722 0.202615 0.031722 0.188288-0.031722 0-0.056282c2.149966-0.052189 4.364401-0.325411 6.53074-1.003863 362.578876-112.562659 378.807489-422.005336 378.76144-690.470741l0.094144-1.893116C908.606877 231.234455 897.67899 220.86734 884.007619 221.700311zM523.500938 888.461047c-311.352167-100.3188-337.292979-366.509395-337.558016-618.050338l1.169639 0.031722c118.759801 0 242.415099-40.823777 336.387353-121.332393 93.974301 80.508615 217.61425 121.332393 336.3894 121.332393l1.169639-0.031722C860.794941 521.951653 834.854129 788.142248 523.500938 888.461047z"  /></svg>